name D:\school\WTK\thesis\model\3dpredictsim\Results\batch_windlass\Pog_s1_tmt_aCst_d00_k800_WL20_ig24.mot
datacolumns 128
datarows 4
range 0.54701491 0.57983581
endheader
time	pelvis_tilt	pelvis_list	pelvis_rotation	pelvis_tx	pelvis_ty	pelvis_tz	hip_flexion_l	hip_adduction_l	hip_rotation_l	hip_flexion_r	hip_adduction_r	hip_rotation_r	knee_angle_l	knee_angle_r	ankle_angle_l	ankle_angle_r	subtalar_angle_l	subtalar_angle_r	tmt_angle_l	tmt_angle_r	mtp_angle_l	mtp_angle_r	lumbar_extension	lumbar_bending	lumbar_rotation	arm_flex_l	arm_add_l	arm_rot_l	arm_flex_r	arm_add_r	arm_rot_r	elbow_flex_l	elbow_flex_r	pro_sup_l	pro_sup_r	glut_med1_l/activation	glut_med2_l/activation	glut_med3_l/activation	glut_min1_l/activation	glut_min2_l/activation	glut_min3_l/activation	semimem_l/activation	semiten_l/activation	bifemlh_l/activation	bifemsh_l/activation	sar_l/activation	add_long_l/activation	add_brev_l/activation	add_mag1_l/activation	add_mag2_l/activation	add_mag3_l/activation	tfl_l/activation	pect_l/activation	grac_l/activation	glut_max1_l/activation	glut_max2_l/activation	glut_max3_l/activation	iliacus_l/activation	psoas_l/activation	quad_fem_l/activation	gem_l/activation	peri_l/activation	rect_fem_l/activation	vas_med_l/activation	vas_int_l/activation	vas_lat_l/activation	med_gas_l/activation	lat_gas_l/activation	soleus_l/activation	tib_post_l/activation	flex_dig_l/activation	flex_hal_l/activation	tib_ant_l/activation	per_brev_l/activation	per_long_l/activation	per_tert_l/activation	ext_dig_l/activation	ext_hal_l/activation	ercspn_l/activation	intobl_l/activation	extobl_l/activation	glut_med1_r/activation	glut_med2_r/activation	glut_med3_r/activation	glut_min1_r/activation	glut_min2_r/activation	glut_min3_r/activation	semimem_r/activation	semiten_r/activation	bifemlh_r/activation	bifemsh_r/activation	sar_r/activation	add_long_r/activation	add_brev_r/activation	add_mag1_r/activation	add_mag2_r/activation	add_mag3_r/activation	tfl_r/activation	pect_r/activation	grac_r/activation	glut_max1_r/activation	glut_max2_r/activation	glut_max3_r/activation	iliacus_r/activation	psoas_r/activation	quad_fem_r/activation	gem_r/activation	peri_r/activation	rect_fem_r/activation	vas_med_r/activation	vas_int_r/activation	vas_lat_r/activation	med_gas_r/activation	lat_gas_r/activation	soleus_r/activation	tib_post_r/activation	flex_dig_r/activation	flex_hal_r/activation	tib_ant_r/activation	per_brev_r/activation	per_long_r/activation	per_tert_r/activation	ext_dig_r/activation	ext_hal_r/activation	ercspn_r/activation	intobl_r/activation	extobl_r/activation	
          0.54701491	         -2.92970185	          1.75377655	         -5.67226572	          0.68376864	          0.85888730	          0.00217718	         31.65620516	          2.32469229	         -3.06436071	        -17.82057396	         -1.36734684	          7.00229969	        -15.60725298	         -8.32222174	          6.36900772	          0.79189328	          0.09559631	         11.43480569	         -0.07894543	         -4.30726110	          0.48724697	         25.56854961	         -1.68251118	         -0.06614385	          1.93543557	         -7.47986253	        -13.56126540	         11.15240419	          6.90484570	        -13.46463820	         18.55756020	         14.11637249	         33.47545105	         86.51662706	         86.51662706	          0.05911691	          0.05000462	          0.05000138	          0.05593054	          0.05000557	          0.05911376	          0.05911696	          0.05911703	          0.11827973	          0.05000011	          0.05000028	          0.11552528	          0.21991972	          0.13358637	          0.16155903	          0.08645813	          0.05000141	          0.05612704	          0.07321547	          0.05433498	          0.06935379	          0.10779193	          0.05453444	          0.05034758	          0.27193282	          0.06934260	          0.08587826	          0.05000008	          0.12216555	          0.12566507	          0.10550322	          0.05911691	          0.05911690	          0.05911690	          0.05000010	          0.05000027	          0.05000043	          0.50958114	          0.30603124	          0.18311706	          0.28114455	          0.58034330	          0.23899559	          0.05805788	          0.11158209	          0.10850704	          0.31595982	          0.09951708	          0.05816048	          0.34322831	          0.21273070	          0.10169037	          0.05000168	          0.05000020	          0.05000012	          0.07065915	          0.09770565	          0.09339821	          0.05000083	          0.05000045	          0.05000096	          0.05000079	          0.26753663	          0.05003739	          0.05000028	          0.05000114	          0.05000079	          0.05000073	          0.32141672	          0.53832314	          0.05000005	          0.05000016	          0.05000008	          0.19094312	          0.08512917	          0.05024341	          0.07529086	          0.29284581	          0.38400951	          0.26497904	          0.23786158	          0.23177027	          0.30994650	          0.05000001	          0.09645084	          0.16722069	          0.05000015	          0.05000003	          0.05000009	          0.05000001	          0.05000002	          0.05000009	
          0.55795521	         -2.92504404	          1.84158101	         -5.92053916	          0.70040747	          0.85807370	          0.00196533	         30.96755428	          2.72610353	         -2.84809177	        -17.59463317	         -1.66454045	          6.76979922	        -15.47954264	        -10.35291161	          5.81731245	         -0.14716611	         -0.37164091	         12.39234913	         -0.10661552	         -4.86615166	          0.65607498	         26.72452448	         -1.48204806	         -0.30821686	          2.01249351	         -8.54306095	        -13.55272277	         10.92091326	          6.64315082	        -13.48470400	         18.74242733	         14.02246415	         34.60859392	         86.51662706	         86.51662706	          0.05000003	          0.05000006	          0.09104091	          0.05000005	          0.05000006	          0.05000012	          0.05000007	          0.05000024	          0.10003885	          0.05019831	          0.05911807	          0.09770941	          0.18600424	          0.35310832	          0.21979478	          0.07312480	          0.05000010	          0.05000164	          0.06192476	          0.05892969	          0.05911749	          0.12665076	          0.05000025	          0.06989583	          0.57899447	          0.16147079	          0.13010421	          0.06989641	          0.22061060	          0.22859876	          0.19354866	          0.05000001	          0.05000004	          0.05000000	          0.05880422	          0.06989618	          0.06589066	          0.57541119	          0.39913034	          0.21752361	          0.23778731	          0.60424800	          0.20213834	          0.05000001	          0.09437408	          0.09177327	          0.26723306	          0.08416973	          0.05583135	          0.29029630	          0.17992377	          0.08600789	          0.05000241	          0.05000048	          0.05000092	          0.05976223	          0.08263787	          0.19308991	          0.17112837	          0.06991999	          0.05027750	          0.06989513	          0.22627765	          0.07978514	          0.05002420	          0.05000182	          0.05000147	          0.05000141	          0.27184839	          0.47852384	          0.05000090	          0.05911771	          0.05911703	          0.16149625	          0.15695916	          0.16149548	          0.13659110	          0.24768361	          0.32478820	          0.22411441	          0.20117903	          0.19602733	          0.26214719	          0.05000002	          0.08157638	          0.14143223	          0.05000007	          0.05000003	          0.05000010	          0.05000010	          0.06989664	          0.05154654	
          0.56889551	         -2.91620193	          1.93568636	         -6.14090598	          0.71731464	          0.85716936	          0.00177999	         30.11238272	          3.05609471	         -2.56265697	        -17.30456634	         -1.95790654	          6.52124821	        -15.76698909	        -12.49717950	          5.31677704	         -1.22998750	         -0.87247668	         13.28654810	         -0.51078472	         -5.35236870	          0.76267019	         27.55029783	         -1.26294714	         -0.56591812	          2.07732899	         -9.60338443	        -13.55038163	         10.75943944	          6.29460985	        -13.50340870	         18.83208595	         13.91927504	         35.73730400	         86.51662706	         86.51662706	          0.31129722	          0.05000028	          0.30840332	          0.17648578	          0.05000136	          0.32587350	          0.08630829	          0.05000016	          0.11089328	          0.05000003	          0.05000111	          0.08264107	          0.19663481	          0.29865261	          0.18589872	          0.12235211	          0.05000060	          0.06989656	          0.05237532	          0.05000011	          0.05000054	          0.10711902	          0.05001961	          0.05911666	          0.48970290	          0.13656910	          0.23574566	          0.05911711	          0.18658850	          0.19334483	          0.16370000	          0.05911691	          0.05911691	          0.05911691	          0.05911688	          0.05911704	          0.05911698	          0.56354160	          0.33757720	          0.18397751	          0.48037988	          0.65145429	          0.17096492	          0.05000002	          0.09770971	          0.07762015	          0.37455484	          0.07118923	          0.05000009	          0.24552767	          0.15217628	          0.07274392	          0.05036172	          0.05000025	          0.05000020	          0.05054583	          0.06989386	          0.16933414	          0.24042096	          0.05913743	          0.05911658	          0.05911670	          0.19138169	          0.08268706	          0.05000135	          0.05000299	          0.05000259	          0.05000784	          0.22992446	          0.44801504	          0.05000076	          0.05000098	          0.05000015	          0.13659057	          0.13275332	          0.13659001	          0.11552634	          0.20948624	          0.27469989	          0.18955185	          0.17015355	          0.16579641	          0.22171934	          0.08822075	          0.13260040	          0.18198115	          0.05000018	          0.13982883	          0.05000077	          0.05707807	          0.05911730	          0.05911698	
          0.57983581	         -2.90514224	          2.03690952	         -6.32699154	          0.73427587	          0.85616870	          0.00158325	         29.13978197	          3.35705833	         -2.27338451	        -16.91499420	         -2.24463478	          6.26964078	        -16.07254992	        -14.81298038	          5.13510852	         -2.33640395	         -1.41216538	         14.10604640	         -1.26675277	         -5.70840185	          0.88215068	         27.76280282	         -1.04670476	         -0.83700070	          2.13083808	        -10.61171533	        -13.55274523	         10.68953706	          5.89207351	        -13.52550970	         18.84027783	         13.77976530	         36.84994639	         86.51662706	         86.51662706	          0.37872742	          0.33213186	          0.42032122	          0.24516737	          0.20012791	          0.27561892	          0.07299817	          0.11602582	          0.09379164	          0.08264080	          0.05000061	          0.06989634	          0.16631015	          0.25259509	          0.22210962	          0.15760729	          0.05000017	          0.05911764	          0.12168459	          0.23904939	          0.17661074	          0.15273722	          0.05000010	          0.05000010	          0.41418175	          0.11550774	          0.21042659	          0.05000018	          0.15781340	          0.22810078	          0.15336500	          0.05000001	          0.05000003	          0.05000000	          0.05000000	          0.05000017	          0.05000010	          0.67887708	          0.35679785	          0.17225921	          0.69952916	          0.69133268	          0.42941980	          0.07481178	          0.08264108	          0.06564970	          0.31679169	          0.06021057	          0.05000002	          0.22321562	          0.12870797	          0.06152552	          0.07109095	          0.05000015	          0.05000014	          0.05000011	          0.05911725	          0.18249245	          0.20334376	          0.05001748	          0.05000067	          0.05000084	          0.16186733	          0.06993563	          0.05000024	          0.05000062	          0.05000036	          0.05000021	          0.19446592	          0.40183426	          0.05000003	          0.05000020	          0.05000012	          0.11552581	          0.11228043	          0.11552540	          0.09771015	          0.17717962	          0.23233613	          0.16031947	          0.14391279	          0.14022767	          0.18752624	          0.17927869	          0.15543941	          0.15391702	          0.27159060	          0.23234547	          0.12239442	          0.09593747	          0.05000033	          0.05000007	
